<svg height="512" width="512" xmlns="http://www.w3.org/2000/svg"><path d="M350 30h-77V15c0-8.284-6.716-15-15-15H108c-8.284 0-15 6.716-15 15v15H16C7.716 30 1 36.716 1 45v451.999c0 8.284 6.716 15 15 15h334c8.284 0 15-6.716 15-15V45c0-8.284-6.716-15-15-15zm-227 0h120v30H123zm212 451.999H31V60h62v15c0 8.284 6.716 15 15 15h150c8.284 0 15-6.716 15-15V60h62z"/><path d="M76.001 280c-8.261 0-15 6.739-15 15 0 8.262 6.739 15 15 15 8.262 0 15-6.738 15-15-.001-8.261-6.739-15-15-15zM136 280c-8.284 0-15 6.716-15 15s6.716 15 15 15h153.997c8.284 0 15-6.716 15-15s-6.716-15-15-15zm-59.999 60.001c-8.261 0-15 6.738-15 15 0 8.261 6.739 15 15 15 8.262 0 15-6.739 15-15-.001-8.262-6.739-15-15-15zm214-.001H136c-8.284 0-15 6.716-15 15s6.716 15 15 15h154.001c8.284 0 15-6.716 15-15s-6.715-15-15-15zm-214 60c-8.261 0-15 6.738-15 15 0 8.261 6.739 15 15 15 8.262 0 15-6.739 15-15-.001-8.262-6.739-15-15-15zm214.271 0H136c-8.284 0-15 6.716-15 15s6.716 15 15 15h154.271c8.284 0 15-6.716 15-15s-6.715-15-14.999-15zM146.001 186.999H168v22c0 8.284 6.716 15 15 15s15-6.716 15-15v-22h21.999c8.284 0 15-6.716 15-15s-6.716-15-15-15H198V135c0-8.284-6.716-15-15-15s-15 6.716-15 15v21.999h-21.999c-8.284 0-15 6.716-15 15s6.716 15 15 15zm364.995-39.072a15.078 15.078 0 00-1.398-6.257l-40.5-87a14.999 14.999 0 00-27.197 0l-40.5 87a15.104 15.104 0 00-1.333 4.978c-.039.426-.063.853-.065 1.28C400.004 147.952 400 436 400 436c0 6.528 4.178 12.067 10 14.128V497c0 8.284 6.716 15 15 15h61c8.284 0 15-6.716 15-15v-46.872c5.822-2.061 10-7.6 10-14.128l-.004-288.073zM481 360.999h-51V163h51zm-51 30h51V421h-51zm25.5-294.457L472.472 133h-33.943zM471 482h-31v-31h31z"/></svg>