<svg xmlns="http://www.w3.org/2000/svg" viewBox="0 0 480 480"><path d="M232 48h-4.904l12.488-37.472A8 8 0 00232 0H72a8 8 0 00-7.584 10.528L76.904 48H72a8 8 0 000 16h8v344c0 39.764 32.236 72 72 72 39.765 0 72-32.236 72-72V64h8a8 8 0 000-16zm-24 360c-.035 30.913-25.087 55.965-56 56-30.913-.035-55.965-25.087-56-56V168h112v240zm0-256H96V64h112v88zm2.232-104H93.768L83.104 16h137.792l-10.664 32zm132.504 75.68a8.32 8.32 0 00-13.473 0C321.768 135.368 256 239.072 256 280c0 44.183 35.817 80 80 80s80-35.817 80-80c0-40.928-65.768-144.632-73.264-156.32zM336 344c-35.33-.04-63.96-28.67-64-64 0-27.632 41.392-100.36 64-136.968C358.608 179.64 400 252.36 400 280c-.04 35.33-28.67 63.96-64 64z"/></svg>