<svg height="512" width="512" xmlns="http://www.w3.org/2000/svg"><path d="M15.008 189.001h60.288c8.284 0 15-6.716 15-15s-6.716-15-15-15H15.008c-8.284 0-15 6.716-15 15 0 8.284 6.716 15 15 15zm180.234 99.003c-8.284 0-15 6.716-15 15v16.001c0 8.284 6.716 15 15 15s15-6.716 15-15v-16.001c0-8.284-6.716-15-15-15zm60.25 0c-8.284 0-15 6.716-15 15v16.001c0 8.284 6.716 15 15 15s15-6.716 15-15v-16.001c0-8.284-6.716-15-15-15zm61.253 0c-8.284 0-15 6.716-15 15v16.001c0 8.284 6.716 15 15 15s15-6.716 15-15v-16.001c0-8.284-6.716-15-15-15zm-121.503-76.002c-8.284 0-15 6.716-15 15v16.001c0 8.284 6.716 15 15 15s15-6.716 15-15v-16.001c0-8.284-6.716-15-15-15zm60.25 0c-8.284 0-15 6.716-15 15v16.001c0 8.284 6.716 15 15 15s15-6.716 15-15v-16.001c0-8.284-6.716-15-15-15zm61.253 0c-8.284 0-15 6.716-15 15v16.001c0 8.284 6.716 15 15 15s15-6.716 15-15v-16.001c0-8.284-6.716-15-15-15zM195.242 136c-8.284 0-15 6.716-15 15v16c0 8.284 6.716 15 15 15s15-6.716 15-15v-16c0-8.284-6.716-15-15-15zm60.25 0c-8.284 0-15 6.716-15 15v16c0 8.284 6.716 15 15 15s15-6.716 15-15v-16c0-8.284-6.716-15-15-15zm61.253 0c-8.284 0-15 6.716-15 15v16c0 8.284 6.716 15 15 15s15-6.716 15-15v-16c0-8.284-6.716-15-15-15zM195.242 59.998c-8.284 0-15 6.716-15 15v16c0 8.284 6.716 15 15 15s15-6.716 15-15v-16c0-8.284-6.716-15-15-15zm60.25 0c-8.284 0-15 6.716-15 15v16c0 8.284 6.716 15 15 15s15-6.716 15-15v-16c0-8.284-6.716-15-15-15zm61.253 0c-8.284 0-15 6.716-15 15v16c0 8.284 6.716 15 15 15s15-6.716 15-15v-16c0-8.284-6.716-15-15-15zm-61.253 304.008c-8.284 0-15 6.716-15 15v16.001c0 8.284 6.716 15 15 15s15-6.716 15-15v-16.001c0-8.284-6.716-15-15-15zm61.253 0c-8.284 0-15 6.716-15 15v16.001c0 8.284 6.716 15 15 15s15-6.716 15-15v-16.001c0-8.284-6.716-15-15-15z"/><path d="M497 482h-16.771v-38.962c17.419-5.334 30.125-21.563 30.125-40.706v-40.94c0-23.471-19.095-42.565-42.565-42.565h-5.118c-23.471 0-42.565 19.095-42.565 42.565v40.94c0 19.143 12.705 35.372 30.124 40.706V482h-58.235V89.998h73.235c8.284 0 15-6.716 15-15s-6.716-15-15-15h-73.235V15c0-8.284-6.716-15-15-15H134.993c-8.284 0-15 6.716-15 15v467H15c-8.284 0-15 6.716-15 15s6.716 15 15 15h482c8.284 0 15-6.716 15-15s-6.716-15-15-15zm-46.895-120.608c0-6.929 5.637-12.565 12.565-12.565h5.118c6.929 0 12.565 5.637 12.565 12.565v40.94c0 6.929-5.637 12.565-12.565 12.565h-5.118c-6.929 0-12.565-5.637-12.565-12.565zM211.738 482v-41.992c0-8.284-6.716-15-15-15s-15 6.716-15 15V482h-31.745V30h212.002v452z"/></svg>