<svg xmlns="http://www.w3.org/2000/svg" viewBox="0 0 512 512"><path d="M497 120h-90c-56.091 0-105.634 28.042-136 71.195v-42.704c34.192-6.968 60-37.271 60-73.491 0-41.355-33.645-75-75-75s-75 33.645-75 75c0 36.219 25.808 66.522 60 73.491v42.704C210.624 148.029 161.07 120 105 120H15c-8.284 0-15 6.716-15 15 0 24.486 11.793 46.268 30 59.964V195c0 24.486 11.793 46.268 30 59.964V255c0 41.459 33.535 75.9 75 75.9h20.47c-2.922 6.507-4.47 13.689-4.47 20.968a49.806 49.806 0 0034.098 47.31L208.566 407l-23.468 7.823A49.804 49.804 0 00151 462.132C151 489.629 173.371 512 200.868 512c8.284 0 15-6.716 15-15s-6.716-15-15-15C189.913 482 181 473.087 181 462.132c0-8.565 5.459-16.14 13.585-18.849L241 427.812V497c0 8.284 6.716 15 15 15s15-6.716 15-15v-69.189l46.415 15.471A19.843 19.843 0 01331 462.131c0 10.956-8.913 19.868-19.868 19.868-8.284 0-15 6.716-15 15s6.716 15 15 15C338.629 512 361 489.629 361 462.132a49.806 49.806 0 00-34.098-47.31L303.434 407l23.468-7.823A49.804 49.804 0 00361 351.868 50.85 50.85 0 00356.53 331H377c20.038 0 38.915-8.022 53.153-22.588C444.241 293.999 452 275.03 452 255v-.036c18.207-13.696 30-35.478 30-59.964v-.036c18.207-13.696 30-35.478 30-59.964 0-8.284-6.716-15-15-15zM241 386.189l-46.415-15.471A19.845 19.845 0 01181 351.868c0-11.312 9.099-20.868 19.868-20.868H241v55.189zM241 301H135c-19.283 0-36.201-13.167-42.442-31H166c8.284 0 15-6.716 15-15 0-8.284-6.716-15-15-15h-61c-19.556 0-36.239-12.539-42.43-30H135c8.284 0 15-6.716 15-15s-6.716-15-15-15H75c-19.556 0-36.239-12.539-42.43-30H105c74.991 0 136 61.009 136 136v15zm15-181c-24.813 0-45-20.187-45-45s20.187-45 45-45 45 20.187 45 45-20.187 45-45 45zm61.415 250.717L271 386.188V331h40.132c10.769 0 19.868 9.557 19.868 20.868 0 8.565-5.459 16.14-13.585 18.849zM437 180h-60c-8.284 0-15 6.716-15 15s6.716 14.9 15 14.9h72.43C443.239 227.361 426.556 240 407 240h-61c-8.284 0-15 6.716-15 15 0 8.284 6.716 14.9 15 14.9h73.442C413.201 287.733 396.283 301 377 301H271v-15c0-74.991 61.009-136.1 136-136.1h72.43C473.239 167.361 456.556 180 437 180z"/></svg>