<svg height="512" width="512" xmlns="http://www.w3.org/2000/svg"><path d="M0 0v512h512V0zm482 482H30V30h452z"/><path d="M452 60H60v332h392zm-30 302H90V90h332zm-43.5 60h75v30h-75zm-109.873 0h75v30h-75zM60 422h30v30H60z"/><path d="M186.922 252.639l8.078 5.163 8.078-5.163C209.928 248.261 270 208.608 270 165c0-24.813-20.187-45-45-45-11.515 0-22.033 4.347-30 11.486-7.967-7.139-18.485-11.486-30-11.486-24.813 0-45 20.187-45 45 0 43.608 60.072 83.261 66.922 87.639zM165 150c8.271 0 15 6.729 15 15h30c0-8.271 6.729-15 15-15s15 6.729 15 15c0 18.074-25.008 42.255-45 56.816-19.997-14.566-45-38.743-45-56.816 0-8.271 6.729-15 15-15z"/><path d="M242.063 279H148v30h107.937L285 274.808v66.264L344.771 309H392v-30h-54.771L315 290.928v-97.736z"/></svg>