<svg height="512" width="512" xmlns="http://www.w3.org/2000/svg"><path d="M256 128.533c-70.285 0-127.467 57.182-127.467 127.467S185.715 383.467 256 383.467 383.467 326.285 383.467 256 326.285 128.533 256 128.533zm0 224.934c-53.743 0-97.467-43.724-97.467-97.467s43.724-97.467 97.467-97.467 97.467 43.724 97.467 97.467-43.724 97.467-97.467 97.467z"/><path d="M260.028 32.184l6.578-6.578c5.858-5.857 5.858-15.355 0-21.213-5.857-5.858-15.355-5.857-21.213 0L213.26 36.527a15 15 0 000 21.212l32.134 32.134c2.929 2.929 6.768 4.393 10.606 4.393s7.678-1.464 10.606-4.394c5.858-5.858 5.858-15.355 0-21.213l-6.475-6.474C365.129 64.393 449.866 150.483 449.866 256c0 8.284 6.716 15 15 15s15-6.716 15-15c0-122.094-98.25-221.657-219.838-223.816zM264.033 241h-15.745c-5.195 0-9.422-4.241-9.422-9.469 0-4.814 3.902-8.731 8.698-8.731h24.502c8.284 0 15-6.716 15-15s-6.716-15-15-15H271v-1.066c0-8.284-6.716-15-15-15s-15 6.716-15 15v1.635c-18.221 3.131-32.134 19.048-32.134 38.178 0 21.755 17.685 39.454 39.422 39.454h15.745c5.019 0 9.101 4.083 9.101 9.1s-4.082 9.1-9.101 9.1h-24.1c-8.284 0-15 6.716-15 15s6.716 15 15 15H241v1.066c0 8.284 6.716 15 15 15s15-6.716 15-15v-1.7c18.246-3.297 32.134-19.285 32.134-38.466 0-21.561-17.54-39.101-39.101-39.101zm2.573 181.126c-5.857-5.857-15.355-5.858-21.213 0s-5.858 15.355 0 21.213l6.475 6.474C146.87 447.606 62.134 361.517 62.134 256c0-8.284-6.716-15-15-15s-15 6.716-15 15c0 122.094 98.25 221.657 219.838 223.816l-6.578 6.578c-5.858 5.857-5.858 15.355 0 21.213C248.322 510.535 252.161 512 256 512s7.678-1.465 10.606-4.393l32.134-32.134a15 15 0 000-21.212z"/></svg>