<svg xmlns="http://www.w3.org/2000/svg" viewBox="0 0 512.009 512.009"><path d="M272.392 249.22l-.009-132.207c0-9.052-7.339-16.383-16.383-16.383s-16.383 7.331-16.383 16.383L239.626 256c0 4.349 1.731 8.511 4.801 11.59l85.765 85.765a16.355 16.355 0 0011.59 4.792c4.189 0 8.378-1.589 11.573-4.792 6.399-6.399 6.399-16.764 0-23.172l-80.963-80.963z"/><path d="M512.009 256.009c0-.079-.011-.155-.012-.234C511.87 114.712 397.083.009 256 .009c-141.161 0-256 114.839-256 256S114.839 512 256 512c141.083 0 255.87-114.695 255.997-255.757.001-.079.012-.155.012-.234zM272.383 478.64v-25.471c0-9.052-7.339-16.383-16.383-16.383s-16.383 7.331-16.383 16.383v25.471C129.556 470.617 41.39 382.444 33.369 272.383H58.84c9.052 0 16.383-7.322 16.383-16.374s-7.331-16.383-16.383-16.383H33.368c8.018-110.065 96.185-198.235 206.249-206.257V58.84c0 9.043 7.339 16.383 16.383 16.383 9.052 0 16.383-7.339 16.383-16.383V33.369c110.068 8.022 198.227 96.195 206.249 206.257H453.17c-9.052 0-16.392 7.322-16.392 16.374s7.339 16.383 16.392 16.383h25.462c-8.017 110.065-96.178 198.236-206.249 206.257z"/></svg>