<svg height="512pt" viewBox="0 0 512 512" width="512pt" xmlns="http://www.w3.org/2000/svg"><path d="M470.434 356.707a.117.117 0 01-.032-.016l-.02-.011-32.91-19c-9.562-5.524-21.796-2.246-27.32 7.32-5.52 9.566-2.242 21.797 7.32 27.32l14.79 8.535c-35.617 50.172-91.735 84.239-156.262 90.211V454c0-11.047-8.953-20-20-20s-20 8.953-20 20v17.078C132.637 461.648 50.348 379.348 40.922 276H58c11.047 0 20-8.953 20-20s-8.953-20-20-20H40.922C50.348 132.637 132.652 50.348 236 40.922V58c0 11.047 8.953 20 20 20s20-8.953 20-20V20c0-11.047-8.953-20-20-20C114.516 0 0 114.496 0 256c0 141.484 114.496 256 256 256 94.574 0 177.402-51.36 221.727-127.965 5.53-9.558 2.265-21.797-7.293-27.328zM345 101.848c9.523 5.5 21.773 2.289 27.32-7.32l19-32.91c5.524-9.563 2.246-21.798-7.32-27.317-9.563-5.524-21.797-2.246-27.32 7.316l-19 32.91c-5.524 9.567-2.246 21.797 7.32 27.32zm92.473 72.472l32.91-19c9.562-5.523 12.844-17.754 7.32-27.32s-17.758-12.844-27.32-7.32l-32.91 19c-9.563 5.523-12.844 17.754-7.32 27.32 5.538 9.594 17.78 12.828 27.32 7.32zM492 236h-38c-11.047 0-20 8.953-20 20s8.953 20 20 20h38c11.047 0 20-8.953 20-20s-8.953-20-20-20zm0 0"/><path d="M276 138c0-11.047-8.953-20-20-20s-20 8.953-20 20v63.555c-22.156 8.168-38 29.488-38 54.445 0 31.98 26.02 58 58 58s58-26.02 58-58c0-24.957-15.844-46.277-38-54.445zm-20 136c-9.926 0-18-8.074-18-18s8.074-18 18-18 18 8.074 18 18-8.074 18-18 18zm0 0"/></svg>