<svg height="512" width="512" xmlns="http://www.w3.org/2000/svg"><path d="M446.606 124.394l-120-120A14.996 14.996 0 00316 0H76c-8.284 0-15 6.716-15 15v482c0 8.284 6.716 15 15 15h360c8.284 0 15-6.716 15-15V135c0-3.979-1.581-7.794-4.394-10.606zM399.787 120H331V51.213zM91 482V30h210v105c0 8.284 6.716 15 15 15h105v332z"/><path d="M356 220H156c-8.284 0-15 6.716-15 15s6.716 15 15 15h200c8.284 0 15-6.716 15-15s-6.716-15-15-15zm0 60H156c-8.284 0-15 6.716-15 15s6.716 15 15 15h200c8.284 0 15-6.716 15-15s-6.716-15-15-15zm0 60H156c-8.284 0-15 6.716-15 15s6.716 15 15 15h200c8.284 0 15-6.716 15-15s-6.716-15-15-15zm-90 60H156c-8.284 0-15 6.716-15 15s6.716 15 15 15h110c8.284 0 15-6.716 15-15s-6.716-15-15-15z"/></svg>