<svg height="512pt" viewBox="-52 0 512 512" width="512pt" xmlns="http://www.w3.org/2000/svg"><path d="M361.8 367.813c-16.878-18.254-37.187-32.473-59.55-42-.023-.012-.047-.02-.07-.028a173.07 173.07 0 00-39.649-11.512v-11.902c20.114-11.781 36.426-29.367 46.614-50.45 33.843-24.484 48.843-64.476 49.488-66.226.09-.246.172-.492.25-.742 3.832-12.394 5.855-25.726 5.855-38.558C364.738 65.672 299.066 0 218.344 0h-28.719C108.902 0 43.23 65.672 43.23 146.395c0 13.027 1.938 25.89 5.743 38.203.539 1.754 13.316 42.261 50.472 70.78 11.614 22.134 30.082 40.126 52.575 51.13v6.812c-39.38 4.926-75.723 23.09-103.54 52.043C17.22 397.898 0 440.672 0 485.81v11.207C0 505.293 6.707 512 14.984 512h378.004c8.274 0 14.985-6.707 14.985-14.984v-11.207c0-43.887-16.399-85.793-46.172-117.997zM316.134 482.03H276.64v-25.097c0-14.047 7.898-24.54 14.96-24.54h9.567c7.062 0 14.965 10.493 14.965 24.54zm-83.57-155.636c-.04.55-.047 1.097-.028 1.636-.578 13.438-11.683 24.192-25.258 24.192-13.945 0-25.289-11.344-25.289-25.29v-10.515a117.44 117.44 0 0021.434 1.969c10.055 0 19.82-1.274 29.14-3.668zM77.612 175.773c-2.93-9.472-4.414-19.355-4.414-29.378 0-64.2 52.227-116.426 116.426-116.426h28.719c64.199 0 116.43 52.226 116.43 116.426 0 9.71-1.516 19.812-4.38 29.246-.644 1.632-3.824 9.39-9.64 19.007v-13.421c0-64.032-52.09-116.66-116.121-117.317-.051-.004-.102-.004-.156-.004-5.485 0-10.536 3-13.16 7.828-9.415 17.309-24.176 33.332-42.688 46.332-15.031 10.551-31.54 18.27-47.734 22.317a14.994 14.994 0 00-10.844 10.66 116.904 116.904 0 00-3.965 30.184V194.3c-5.906-10.57-8.426-18.375-8.473-18.528zm47.535 64.059a15.245 15.245 0 00-.808-1.668c-5.313-11.27-8.285-23.851-8.285-37.113v-19.824c0-4.813.398-9.614 1.191-14.348 16.715-5.285 33.352-13.586 48.602-24.29 19.347-13.585 35.402-30.12 46.898-48.222 43.738 4.696 78.04 42.024 78.04 86.86v19.824c0 12.047-2.45 23.535-6.88 33.988a14.11 14.11 0 00-.75 1.711c-8.344 18.563-22.984 33.7-41.18 42.688a14.56 14.56 0 00-1.777.851 86.88 86.88 0 01-36.777 8.129 86.933 86.933 0 01-30.25-5.402c-.586-.266-1.188-.5-1.809-.688-20.14-7.973-36.629-23.226-46.215-42.496zm-3.78 163.715c7.374 0 13.378 6.004 13.378 13.379s-6 13.379-13.379 13.379c-7.375 0-13.375-6.004-13.375-13.38s6-13.378 13.375-13.378zm-51.282-17.422c10.723-11.156 22.976-20.375 36.297-27.46v17.589c-16.535 6.113-28.36 22.039-28.36 40.672 0 23.898 19.446 43.344 43.344 43.344 23.903 0 43.344-19.446 43.344-43.344 0-18.637-11.82-34.559-28.36-40.672v-29.406a143.68 143.68 0 0118.118-3.633c6.968 22.547 28.004 38.973 52.804 38.973 24.442 0 45.215-15.954 52.48-37.993a143.146 143.146 0 0121.65 5.672v53.996c-19.876 5.621-34.731 27.274-34.731 53.07v25.102H30.016c.925-35.96 15.074-69.89 40.07-95.91zm276.016 95.906v-25.097c0-25.797-14.856-47.454-34.735-53.075v-39.476a144.513 144.513 0 0128.43 23.773c23.781 25.727 37.25 58.934 38.156 93.875zm0 0"/></svg>