<svg height="512" width="512" xmlns="http://www.w3.org/2000/svg"><path d="M447 16H65C29.159 16 0 45.159 0 81v350c0 35.841 29.159 65 65 65h382c35.841 0 65-29.159 65-65V81c0-35.841-29.159-65-65-65zm35 415c0 19.299-15.701 35-35 35H65c-19.299 0-35-15.701-35-35V81c0-19.299 15.701-35 35-35h382c19.299 0 35 15.701 35 35z"/><path d="M436 74H76c-8.284 0-15 6.716-15 15v212c0 8.284 6.716 15 15 15h360c8.284 0 15-6.716 15-15V89c0-8.284-6.716-15-15-15zm-15 30v77h-45a15 15 0 00-14.23 10.256l-6.485 19.455-57.761-69.313c-7.507-9.007-22.039-6.285-25.754 4.859L260.188 181H241a15 15 0 00-14.23 10.256l-6.485 19.455-57.761-69.313c-7.507-9.007-22.039-6.285-25.754 4.859L125.188 181H91v-77zM91 286v-75h45a15 15 0 0014.23-10.256l6.485-19.455 57.762 69.313c7.519 9.024 22.047 6.263 25.753-4.859L251.812 211H271a15 15 0 0014.23-10.256l6.485-19.455 57.762 69.313c7.507 9.009 22.04 6.283 25.753-4.859L386.812 211H421v75zm165 60c-24.813 0-45 20.187-45 45s20.187 45 45 45 45-20.187 45-45-20.187-45-45-45zm0 60c-8.271 0-15-6.729-15-15s6.729-15 15-15 15 6.729 15 15-6.729 15-15 15z"/><circle cx="166" cy="391" r="15"/><circle cx="346" cy="391" r="15"/></svg>