<svg xmlns="http://www.w3.org/2000/svg" data-name="Layer 3" width="512" height="512" viewBox="0 0 32 32"><path d="M26.1 5H5.9A4.907 4.907 0 001 9.9v12.2A4.907 4.907 0 005.9 27h20.2a4.907 4.907 0 004.9-4.9V9.9A4.907 4.907 0 0026.1 5zM29 22.1a2.9 2.9 0 01-2.9 2.9H5.9A2.9 2.9 0 013 22.1V9.9A2.9 2.9 0 015.9 7h20.2A2.9 2.9 0 0129 9.9z"/><path d="M26.707 9.293a1 1 0 00-1.414 0L16 18.586 6.707 9.293a1 1 0 00-1.414 1.414L10.586 16l-5.293 5.293a1 1 0 101.414 1.414L12 17.414l3.293 3.293a1 1 0 001.414 0L20 17.414l5.293 5.293a1 1 0 001.414-1.414L21.414 16l5.293-5.293a1 1 0 000-1.414z"/></svg>