<svg height="512" viewBox="0 0 510 510" width="512" xmlns="http://www.w3.org/2000/svg"><path d="M354 15c0-8.284-6.716-15-15-15-92.028 0-175.757 58.947-239.831 124.517C40.005 185.061 3.68 244.73 2.163 247.241a15.002 15.002 0 000 15.518c1.518 2.511 37.842 62.181 97.007 122.725C163.594 451.412 247.254 510 339 510c8.284 0 15-6.716 15-15s-6.716-15-15-15c-20.47 0-40.524-3.462-59.895-9.438 94.54-118.432 94.513-312.725 0-431.124C298.476 33.462 318.53 30 339 30c8.284 0 15-6.716 15-15zM249.434 459.31C163.705 420.84 83.604 332.93 32.773 255c50.95-78.115 131.055-165.895 216.661-204.31a255.346 255.346 0 0119.057 25.009c-126.12 85.072-126.09 273.55 0 358.603a255.452 255.452 0 01-19.057 25.008zm34.385-357.731c48.244 92.342 48.27 214.449 0 306.842-106.518-73.36-106.621-233.41 0-306.842z"/><path d="M246.717 195.71c-6.235 5.454-6.869 14.931-1.415 21.166 14.193 16.224 14.361 43.831 0 60.248-5.454 6.235-4.821 15.712 1.415 21.166 6.235 5.454 15.712 4.821 21.166-1.414 24.17-27.632 24.177-72.113 0-99.752-5.454-6.236-14.93-6.868-21.166-1.414zM495 240h-96c-8.284 0-15 6.716-15 15s6.716 15 15 15h96c8.284 0 15-6.716 15-15s-6.716-15-15-15zm-96-34c3.838 0 7.678-1.465 10.606-4.394l67.882-67.882c5.858-5.857 5.858-15.355 0-21.213-5.857-5.859-15.355-5.857-21.213 0l-67.882 67.882C378.915 189.871 385.758 206 399 206zm10.606 102.394c-5.857-5.857-15.355-5.857-21.213 0s-5.858 15.355 0 21.213l67.882 67.882a14.954 14.954 0 0010.606 4.394c13.243 0 20.084-16.13 10.606-25.606z"/></svg>