<svg xmlns="http://www.w3.org/2000/svg" width="512" height="512"><path d="M436 302h-60.494c5.788-9.721 10.004-19.547 12.57-29.401 4.66-17.896 3.613-35.223-3.026-50.109-11.309-25.357-37.122-40.496-69.05-40.496-8.284 0-15 6.716-15 15l.001 2.399c.031 32.535.046 48.866-56.063 80.907-23.948 13.676-51.178 21.174-78.75 21.688H151V287c0-8.284-6.716-15-15-15H16c-8.284 0-15 6.716-15 15v180c0 8.284 6.716 15 15 15h120c8.284 0 15-6.716 15-15v-15h2.574c23.353 0 45.307 9.094 61.82 25.607C237.572 499.785 267.06 512 298.426 512H376c24.813 0 45-20.187 45-45a44.756 44.756 0 00-3.181-16.586C436.915 445.209 451 427.723 451 407a44.756 44.756 0 00-3.181-16.586C466.915 385.209 481 367.723 481 347c0-24.813-20.187-45-45-45zM121 452H31V302h90v150zm315-90h-60c-8.284 0-15 6.716-15 15s6.716 15 15 15h30c8.271 0 15 6.729 15 15s-6.729 15-15 15h-30c-8.284 0-15 6.716-15 15s6.716 15 15 15c8.271 0 15 6.729 15 15s-6.729 15-15 15h-77.574c-23.353 0-45.307-9.094-61.82-25.606C214.428 434.215 184.939 422 153.573 422H151v-90.012l15.594-.002c32.639-.582 64.874-9.446 93.221-25.634 32.453-18.532 51.402-35.024 61.441-53.471 7.19-13.213 9.084-26.046 9.577-39.181 12.631 3.116 22.086 10.401 26.818 21.01 8.132 18.233 1.095 43.061-18.808 67.291H316c-8.284 0-15 6.716-15 15s6.716 15 15 15h120c8.271 0 15 6.729 15 15S444.271 362 436 362z"/><circle cx="76" cy="347" r="15"/><path d="M510.266 64.663a15.002 15.002 0 00-12.109-10.209l-43.837-6.37-19.604-39.722a15 15 0 00-26.903 0l-19.604 39.723-41.945 6.095-41.944-6.095-19.604-39.723a15 15 0 00-26.903 0l-19.604 39.723-41.945 6.095-41.944-6.095-19.604-39.723a15 15 0 00-26.903 0L88.209 48.084l-43.837 6.37a15.001 15.001 0 00-8.313 25.585l31.721 30.92-7.489 43.659a15.001 15.001 0 0021.764 15.813l39.209-20.614 39.209 20.613a15 15 0 0021.764-15.813l-7.488-43.66 21.515-20.972 21.515 20.972-7.489 43.659a15.001 15.001 0 0021.764 15.813l39.209-20.614 39.209 20.613a15 15 0 0021.764-15.813l-7.488-43.66 21.515-20.972 21.515 20.972-7.489 43.659a15.001 15.001 0 0021.764 15.813l39.209-20.614 39.209 20.613a15 15 0 0021.764-15.813l-7.488-43.66 31.721-30.92a14.984 14.984 0 003.798-15.37zM148.162 94.982a15.002 15.002 0 00-4.314 13.277l3.684 21.476-19.287-10.14a14.999 14.999 0 00-13.96 0l-19.287 10.14 3.684-21.476a15.002 15.002 0 00-4.314-13.277l-15.605-15.21 21.563-3.133a15.002 15.002 0 0011.294-8.206l9.644-19.54 9.643 19.54a15.002 15.002 0 0011.294 8.206l21.563 3.133-15.602 15.21zm150 0a15.002 15.002 0 00-4.314 13.277l3.684 21.476-19.287-10.14a14.999 14.999 0 00-13.96 0l-19.287 10.14 3.684-21.476a15.002 15.002 0 00-4.314-13.277l-15.604-15.209 21.563-3.133a15.002 15.002 0 0011.294-8.206l9.644-19.54 9.643 19.54a15.002 15.002 0 0011.294 8.206l21.563 3.133-15.603 15.209zm150 0a15.002 15.002 0 00-4.314 13.277l3.684 21.476-19.287-10.14a14.999 14.999 0 00-13.96 0l-19.287 10.14 3.684-21.476a15.002 15.002 0 00-4.314-13.277l-15.604-15.209 21.563-3.133a15.002 15.002 0 0011.294-8.206l9.644-19.54 9.643 19.54a15.002 15.002 0 0011.294 8.206l21.563 3.133-15.603 15.209z"/></svg>