<svg height="512" width="512" xmlns="http://www.w3.org/2000/svg"><path d="M256 0C114.516 0 0 114.497 0 256c0 141.483 114.497 256 256 256 141.483 0 256-114.497 256-256C512 114.517 397.503 0 256 0zm215.079 236h-97.094c-.577-17.129-1.908-33.974-3.96-50.385 42.49-31.634 25.264-98.903-26.952-106.342-4.096-9.605-8.494-18.408-13.175-26.349C404.522 80.027 463.156 149.14 471.079 236zM256 472c-15.656 0-32.969-17.899-47.072-47.815 16.649-10.52 27.738-29.076 27.738-50.185 0-31.531-24.726-57.386-55.805-59.219A521.93 521.93 0 01178.026 276H333.97c-1.894 52.847-11.273 101.682-26.899 139.185C292.247 450.761 273.155 472 256 472zm-78.667-117.333c10.66 0 19.333 8.673 19.333 19.333s-8.673 19.333-19.333 19.333S158 384.66 158 374s8.673-19.333 19.333-19.333zM178.03 236c1.894-52.847 11.273-101.682 26.899-139.185C219.752 61.239 238.844 40 256 40c15.656 0 32.969 17.899 47.071 47.816-16.649 10.52-27.738 29.076-27.738 50.184 0 31.531 24.726 57.386 55.805 59.219A521.93 521.93 0 01333.973 236zm156.637-78.667c-10.661 0-19.334-8.673-19.334-19.333s8.673-19.333 19.334-19.333c10.66 0 19.333 8.673 19.333 19.333s-8.673 19.333-19.333 19.333zM182.168 52.899c-30.082 50.826-42.152 123.546-44.16 183.101H40.921c7.939-87.028 66.737-156.067 141.247-183.101zM40.921 276h97.094c.578 17.129 1.909 33.974 3.961 50.385-42.49 31.634-25.263 98.902 26.952 106.342 4.096 9.606 8.494 18.408 13.175 26.35C107.478 431.973 48.844 362.86 40.921 276zm288.91 183.101c30.068-50.805 42.151-123.499 44.16-183.101h97.088c-7.939 87.029-66.738 156.067-141.248 183.101z"/></svg>