<svg height="512pt" viewBox="-6 0 512 512" width="512pt" xmlns="http://www.w3.org/2000/svg"><path d="M348.39 270.777a14.972 14.972 0 0011.837 5.778 14.93 14.93 0 009.214-3.172c25.82-20.14 40.633-50.45 40.633-83.16 0-58.125-47.289-105.41-105.41-105.41-58.125 0-105.41 47.285-105.41 105.41v26.535c0 8.285 6.719 15 15 15 6.754 0 12.46-4.461 14.344-10.598.425-1.39.656-2.87.656-4.402v-26.535c0-41.582 33.828-75.41 75.41-75.41 41.582 0 75.41 33.828 75.41 75.41 0 1.215-.039 2.425-.094 3.632h-26.27c-29.75 0-55.058 19.297-64.116 46.024a67.388 67.388 0 00-3.582 21.676c0 37.328 30.37 67.695 67.699 67.695 8.281 0 15-6.715 15-15 0-8.281-6.719-15-15-15-20.785 0-37.7-16.91-37.7-37.695 0-4.52.802-8.856 2.266-12.871 5.274-14.47 19.164-24.829 35.434-24.829h18.492c-4.953 9.942-12.129 18.786-21.21 25.872a14.928 14.928 0 00-5.106 7.43c-1.383 4.519-.625 9.613 2.504 13.62zm0 0"/><path d="M304.664 0C197.461 0 110.246 87.215 110.246 194.418c0 71.215 39.02 136.402 100.688 170.363-6.383 13.625-9.707 28.5-9.707 43.781 0 57.036 46.402 103.438 103.437 103.438s103.438-46.402 103.438-103.438c0-8.28-6.72-15-15-15-8.286 0-15 6.72-15 15 0 40.497-32.946 73.438-73.438 73.438-40.492 0-73.437-32.941-73.437-73.438 0-14.949 4.476-29.343 12.945-41.62a15.013 15.013 0 002.094-12.579 15.011 15.011 0 00-8.344-9.644c-59.336-26.39-97.68-85.387-97.68-150.301C140.246 103.758 214.004 30 304.664 30s164.418 73.758 164.418 164.418c0 8.285 6.719 15 15 15 8.285 0 15-6.715 15-15C499.082 87.215 411.867 0 304.664 0zM154.512 388.531c-37.332 0-67.703-30.37-67.703-67.703 0-8.285-6.715-15-15-15-8.282 0-15 6.715-15 15 0 53.871 43.832 97.703 97.703 97.703 8.285 0 15-6.719 15-15 0-8.285-6.715-15-15-15zm0 0"/><path d="M146.29 445.34C82.167 445.34 30 393.172 30 329.05c0-8.284-6.715-15-15-15s-15 6.716-15 15c0 80.665 65.625 146.29 146.29 146.29 8.28 0 15-6.715 15-15s-6.72-15-15-15zm0 0"/></svg>