<svg xmlns="http://www.w3.org/2000/svg" viewBox="0 0 512 512"><path d="M236 186v50h-50c-11.046 0-20 8.954-20 20s8.954 20 20 20h50v50c0 11.046 8.954 20 20 20s20-8.954 20-20v-50h50c11.046 0 20-8.954 20-20s-8.954-20-20-20h-50v-50c0-11.046-8.954-20-20-20s-20 8.954-20 20z"/><path d="M485.625 123.268L265.627 2.469a20 20 0 00-19.252 0l-220 120.799a20 20 0 00-10.159 20.454l12.096 81.901c18.512 125.286 106.68 225.681 218.422 284.101a19.993 19.993 0 0018.532 0c111.885-58.494 199.933-158.971 218.423-284.102l12.096-81.9a20 20 0 00-10.16-20.454zm-41.506 96.509C428.136 327.939 352.844 415.77 256 469.294 159.162 415.773 83.864 327.943 67.882 219.778l-10.064-68.141L256 42.816l198.182 108.82-10.063 68.141z"/></svg>