<svg height="511pt" viewBox="0 0 512 511" width="511pt" xmlns="http://www.w3.org/2000/svg"><path d="M496.863.5H15.003C4.786.5-2.456 10.531.782 20.238c38.98 116.946 47.043 241.5 23.313 360.2L.328 494.288a14.988 14.988 0 003.04 12.52 15.006 15.006 0 0011.636 5.539h481.86a14.994 14.994 0 0014.679-18.059l-23.77-113.851c-23.566-117.883-15.503-241.747 23.317-358.2C514.402 12.297 508.45.5 496.863.5zM122.56 466.988a15.089 15.089 0 01-1.582-6.707v-82.894c0-8.27 6.726-14.996 14.992-14.996h14.996v45.738c0 8.281 6.715 14.996 14.996 14.996s14.996-6.715 14.996-14.996V197.44c0-8.27 6.727-14.996 14.996-14.996s14.996 6.727 14.996 14.996v149.954c0 8.285 6.715 14.996 14.996 14.996s14.996-6.711 14.996-14.996V167.449c0-8.27 6.727-14.996 14.993-14.996 8.27 0 14.996 6.727 14.996 14.996v179.946c0 8.285 6.715 14.996 14.996 14.996s14.996-6.711 14.996-14.996v-29.989c0-8.27 6.726-14.996 14.996-14.996s14.996 6.727 14.996 14.996v29.989c0 8.285 6.715 14.996 14.996 14.996s14.996-6.711 14.996-14.996c0-8.266 6.727-14.993 14.992-14.993 8.27 0 14.997 6.727 14.997 14.993V460.28c0 2.317-.547 4.633-1.583 6.707l-7.683 15.367H130.242zm335.816-80.61c.008.044 20.04 95.977 20.04 95.977h-63.259l.98-1.957a45.237 45.237 0 004.747-20.117V347.398c0-24.808-20.18-44.988-44.985-44.988a44.788 44.788 0 00-16.574 3.164c-5.207-19.082-22.695-33.156-43.41-33.156-5.254 0-10.3.906-14.992 2.57V167.45c0-24.804-20.184-44.984-44.988-44.984-20.711 0-38.2 14.07-43.41 33.152a44.773 44.773 0 00-16.575-3.164c-24.804 0-44.984 20.184-44.984 44.988v134.961H135.97c-24.805 0-44.989 20.18-44.989 44.985v82.894a45.25 45.25 0 004.75 20.121l.98 1.957H33.454l20.04-95.98C76.925 269.21 70.675 146.62 35.507 30.492h205.43v46.985c0 8.28 6.714 14.996 14.996 14.996s14.996-6.715 14.996-14.996V30.492h206.039c-35.543 116.215-42 238.848-18.594 355.887zm0 0"/><path d="M399.156 251.02h.149c8.215 0 14.914-6.622 14.992-14.852a761.58 761.58 0 0117.578-155.48c1.77-8.094-3.352-16.086-11.441-17.86-8.09-1.77-16.086 3.352-17.856 11.442a791.777 791.777 0 00-18.27 161.609c-.081 8.281 6.567 15.059 14.848 15.14zM109.293 74.27c-1.773-8.094-9.77-13.211-17.856-11.442-8.093 1.774-13.214 9.766-11.44 17.856A761.887 761.887 0 0197.57 236.168c.078 8.23 6.778 14.852 14.993 14.852h.144c8.281-.083 14.934-6.86 14.852-15.141a791.579 791.579 0 00-18.266-161.61zm0 0"/></svg>