<svg height="512" width="512" xmlns="http://www.w3.org/2000/svg"><path d="M512 128.773l-98.787-98.787H0v392h332v60.028l45-30 45 30v-60.028h90zm-90-47.574l38.787 38.787H422zm-45 250.787c-24.813 0-45-20.187-45-45s20.187-45 45-45 45 20.187 45 45-20.187 45-45 45zm0 83.972l-15 10v-65.481c4.848.988 9.864 1.509 15 1.509s10.152-.521 15-1.509v65.481zm45-23.972v-45.041c18.204-13.697 30-35.475 30-59.959 0-41.355-33.645-75-75-75s-75 33.645-75 75c0 24.484 11.796 46.262 30 59.959v45.041H30v-332h362v90h90v242z"/><path d="M120 224.986h30v-45h45v-30h-45v-45h-30v45H75v30h45zm-45 47h182v30H75zm0 60h182v30H75zm157-242h122v30H232zm0 60h122v30H232z"/></svg>