<svg height="512" viewBox="0 0 512.004 512.004" width="512" xmlns="http://www.w3.org/2000/svg"><path d="M217.572 180c0-24.813-20.188-45-45.001-45s-45 20.187-45 45 20.187 45 45 45 45.001-20.187 45.001-45zm-60.001 0c0-8.271 6.729-15 15-15s15.001 6.729 15.001 15-6.729 15-15.001 15-15-6.729-15-15z"/><path d="M497.027 441.99l-29.695-.046c18.385-18.458 29.766-43.896 29.766-71.945 0-8.284-6.716-15-15-15s-15 6.716-15 15c0 38.168-29.856 69.477-67.438 71.84l-80.291-.124c-71.356-.11-129.644-57.201-131.733-128.064l12.449-23.189c7.36-13.709 19.695-24.325 34.615-28.939 6.62-2.047 13.579-2.897 20.498-2.64l24.55.921a17.002 17.002 0 013.548 6.707c1.18 4.402.586 8.98-1.673 12.893-4.143 7.174-1.685 16.348 5.49 20.49a14.928 14.928 0 007.486 2.012c5.184 0 10.226-2.69 13.004-7.502 5.987-10.369 7.755-22.391 5.063-34.034 10.973-3.362 20.759-10.693 26.936-21.392 4.143-7.174 1.685-16.348-5.49-20.49-7.176-4.142-16.349-1.685-20.49 5.49-3.888 6.735-11.717 9.788-18.909 7.962l-12.72-20.538c-12.342-19.927-12.263-43.672.21-63.518l11.606-18.466a17.125 17.125 0 015.518.541c4.402 1.18 8.07 3.984 10.329 7.896 2.778 4.813 7.82 7.502 13.004 7.502 2.545 0 5.124-.648 7.486-2.012 7.175-4.142 9.633-13.316 5.49-20.49-5.986-10.367-15.509-17.909-26.934-21.4 2.689-11.64.92-23.659-5.066-34.026-4.143-7.175-13.319-9.632-20.49-5.49-7.175 4.142-9.633 13.316-5.49 20.49 2.259 3.912 2.853 8.491 1.674 12.893a17.154 17.154 0 01-2.197 4.914l-22.652.701c-23.378.713-43.952-11.216-54.904-31.941l-11.971-22.654C187.952 37.276 195.418 30 204.571 30c8.284 0 15-6.716 15-15s-6.716-15-15-15c-12.354 0-23.602 4.799-32 12.62C164.174 4.799 152.925 0 140.572 0c-8.284 0-15 6.716-15 15s6.716 15 15 15c9.135 0 16.59 7.249 16.963 16.295l-12.476 23.24c-11.088 20.652-31.734 32.45-55.113 31.578l-25.525-.958c-3.343-5.189-3.754-12.019-.462-17.722 4.143-7.174 1.684-16.348-5.49-20.49-7.178-4.142-16.35-1.683-20.49 5.491-6.177 10.7-7.646 22.842-5.07 34.026-11.423 3.491-20.946 11.033-26.93 21.398-4.143 7.174-1.685 16.348 5.49 20.49a14.928 14.928 0 007.486 2.012c5.184 0 10.226-2.69 13.004-7.502 2.259-3.912 5.927-6.716 10.329-7.896a16.92 16.92 0 019.431.174l11.43 18.456c12.341 19.927 12.263 43.673-.209 63.519l-11.169 17.771-.555.321c-8.113 4.687-18.534 1.896-23.223-6.222-4.142-7.175-13.319-9.632-20.49-5.49-7.175 4.142-9.633 13.316-5.49 20.49 6.177 10.699 15.96 18.029 26.932 21.391-2.579 11.186-1.112 23.332 5.067 34.034 2.778 4.813 7.82 7.503 13.004 7.503 2.545 0 5.124-.648 7.486-2.012 7.174-4.142 9.633-13.316 5.49-20.49-3.675-6.366-2.735-14.133 1.749-19.455l28.921-.894c23.385-.703 43.953 11.216 54.903 31.941l12.057 22.818c2.184 87.306 73.88 157.764 161.698 157.899l29.051.045c1.16.287 2.366.457 3.614.457h52.033c6.615 0 11.848 2.206 16.467 6.943 4.809 4.931 6.693 9.99 6.505 17.464-.209 8.282 6.335 15.165 14.617 15.374.129.003.257.005.385.005 8.108 0 14.783-6.469 14.988-14.622.239-9.457-1.489-17.886-5.217-25.462l45.24.07c8.272 0 14.986-6.701 14.999-14.977.014-8.284-6.691-15.01-14.975-15.023zM92.755 229.228c-2.385.034-4.855-.009-4.92-.378-.056-.318.959-1.5 1.148-1.806a82.885 82.885 0 002.075-3.553 85.87 85.87 0 006.492-15.071c3.37-10.448 4.798-21.508 4.306-32.47-.492-10.954-2.907-21.838-7.262-31.909a83.274 83.274 0 00-7.04-13.004c34.587 2.14 69.532-18.09 84.9-49.149 15.469 31.002 50.424 51.148 85.003 48.991-19.087 28.904-19.033 69.233.131 98.085-34.588-2.121-69.524 18.103-84.907 49.15.461-.969-1.085-2.334-1.564-3.039-.967-1.425-1.74-2.994-2.67-4.446a87.992 87.992 0 00-14.542-17.315c-7.722-7.11-16.671-12.882-26.315-17.021-9.628-4.131-19.97-6.635-30.44-7.169-.3-.016-2.315.074-4.395.104z"/></svg>