<svg height="512" width="512" xmlns="http://www.w3.org/2000/svg"><path d="M467 15.998H45c-24.813 0-45 20.187-45 45v330c0 24.813 20.187 45 45 45h36.73L62.584 474.29c-3.705 7.41-.702 16.419 6.708 20.125a14.929 14.929 0 006.696 1.587c5.502 0 10.8-3.039 13.428-8.295l25.854-51.708h281.46l25.854 51.708c2.628 5.257 7.925 8.295 13.428 8.295 2.254 0 4.543-.51 6.696-1.587 7.41-3.705 10.413-12.715 6.708-20.125l-19.146-38.292H467c24.813 0 45-20.187 45-45v-330c0-24.813-20.187-45-45-45zm-106 375v15h-54.188l19.591-58.773C346.215 351.934 361 369.766 361 390.998zm-85.812 15h-8.377l-20-60h48.377zm-59.591-58.773l19.591 58.773H181v-15c0-21.232 14.785-39.064 34.597-43.773zM482 390.998c0 8.271-6.729 15-15 15h-76v-15c0-41.189-33.377-74.719-74.505-74.987a14.255 14.255 0 00-.358-.009c-.046 0-.091-.003-.137-.003 0 0-90.372.009-90.487.012-41.131.264-74.513 33.796-74.513 74.987v15H45c-8.271 0-15-6.729-15-15v-330c0-8.271 6.729-15 15-15h422c8.271 0 15 6.729 15 15z"/><path d="M357.204 251.869A44.719 44.719 0 00376 255.998h60c8.284 0 15-6.716 15-15s-6.716-15-15-15c-8.271 0-15-6.729-15-15v-45c0-33.084-26.916-60-60-60-15.016 0-29.125 5.511-39.969 15.225-14.317-9.61-31.53-15.225-50.031-15.225-49.626 0-90 40.374-90 90v30c0 49.626 40.374 90 90 90 40.636 0 75.063-27.074 86.204-64.129zM391 165.998v45c0 5.257.906 10.307 2.57 15H376c-8.271 0-15-6.729-15-15v-15c0-15.11-3.749-29.359-10.356-41.875a15.26 15.26 0 00-.931-1.719 90.28 90.28 0 00-6.744-10.387A29.878 29.878 0 01361 135.998c16.542 0 30 13.458 30 30zm-120-30c19.958 0 37.66 9.804 48.574 24.84-13.648 21.875-37.341 35.16-63.574 35.16h-45c0-33.084 26.916-60 60-60zm60 90c0 33.084-26.916 60-60 60s-60-26.916-60-60h45c20.075 0 39.594-5.688 56.445-16.449a105.471 105.471 0 0018.517-15.04c.012.497.038.99.038 1.489zm-225-90H76c-8.284 0-15 6.716-15 15s6.716 15 15 15h30c8.284 0 15-6.716 15-15s-6.716-15-15-15zm60-60H76c-8.284 0-15 6.716-15 15s6.716 15 15 15h90c8.284 0 15-6.716 15-15s-6.716-15-15-15z"/></svg>