<svg height="512" viewBox="0 0 510.585 510.585" width="512" xmlns="http://www.w3.org/2000/svg"><path d="M479.211 214.784L260.003 433.993c-59.404 59.402-156.056 59.397-215.453 0-59.399-59.4-59.399-156.052 0-215.452l118.569-118.57c7.811-7.811 20.475-7.811 28.285 0s7.81 20.474 0 28.284L72.835 246.826c-43.805 43.804-43.805 115.079 0 158.883 43.803 43.805 115.077 43.804 158.884 0l219.208-219.21c26.202-26.2 26.197-68.604.001-94.799-26.2-26.2-68.605-26.196-94.799 0L161.904 285.924c-8.469 8.468-8.469 22.248 0 30.716 8.488 8.489 22.229 8.487 30.715 0l108.168-108.167c7.81-7.81 20.473-7.81 28.284 0 7.81 7.811 7.81 20.474 0 28.284L220.904 344.924c-24.123 24.123-63.164 24.12-87.284 0-24.064-24.064-24.064-63.22-.001-87.284L327.844 63.416c41.834-41.834 109.539-41.829 151.368 0 41.835 41.835 41.828 109.54-.001 151.368z"/></svg>