<svg xmlns="http://www.w3.org/2000/svg" viewBox="0 0 512 512"><path d="M256 134c-44.2 0-80.1 35.9-80.1 80s36 80 80.1 80 80.1-35.9 80.1-80-35.9-80-80.1-80zm0 120c-22.1 0-40.1-17.9-40.1-40s18-40 40.1-40 40.1 17.9 40.1 40-18 40-40.1 40zm214.5-40C470.5 96 374.3 0 256 0S41.5 96 41.5 214v.3c0 146.8 107.3 256.9 207.2 296.3 4.7 1.9 10 1.9 14.7 0 80.8-31.9 207.2-132.6 207.2-296.3v-.1c-.1-.1-.1-.1-.1-.2zm-40 .4c0 118.1-76.3 209.5-174.5 255.7-97.5-45.7-174.5-137.3-174.5-255.7v-.3c0-95.9 78.3-174 174.5-174s174.4 78 174.5 173.9v.4z"/></svg>