<svg height="512" viewBox="0 0 508.41 508.41" width="512" xmlns="http://www.w3.org/2000/svg"><path d="M234.91 321.736l-10.777-10.777 213.188-170.551c6.973-5.578 7.559-15.997 1.236-22.319l-67.882-67.882c-5.853-5.854-15.355-5.857-21.213 0L4.394 395.275c-5.858 5.858-5.858 15.355 0 21.213 43.277 43.278 113.697 43.281 156.977 0l73.54-73.539c5.854-5.854 5.856-15.356-.001-21.213zM360.068 82.027l45.425 45.425-40.417 32.333-39.73-43.037zm-55.952 55.952l37.475 40.595-138.802 111.041-25.155-25.155zM140.158 395.275c-28.524 28.524-72.072 30.831-102.97 9.632l119.234-119.234 46.669 46.669zm113.252 37.32h-56c-8.284 0-15 6.716-15 15s6.716 15 15 15h56c8.284 0 15-6.716 15-15s-6.716-15-15-15zm120 0h-56c-8.284 0-15 6.716-15 15s6.716 15 15 15h56c8.284 0 15-6.716 15-15s-6.716-15-15-15zm120 0h-56c-8.284 0-15 6.716-15 15s6.716 15 15 15h56c8.284 0 15-6.716 15-15s-6.716-15-15-15z"/></svg>