<svg xmlns="http://www.w3.org/2000/svg" viewBox="0 0 512 512"><path d="M141.4 116.5c-7.4-7.4-19.4-7.4-26.7 0-27.4 27.4-40.9 65.6-37 104.8 1 9.8 9.2 17 18.8 17 .6 0 1.3 0 1.9-.1 10.4-1 18-10.3 16.9-20.7-2.8-27.8 6.7-54.9 26.1-74.3 7.4-7.3 7.4-19.3 0-26.7z"/><path d="M216.3 0C97 0 0 97 0 216.3s97 216.3 216.3 216.3 216.3-97 216.3-216.3S335.5 0 216.3 0zm0 394.7c-98.4 0-178.4-80-178.4-178.4s80-178.4 178.4-178.4 178.4 80 178.4 178.4-80 178.4-178.4 178.4z"/><path d="M506.5 479.7L369 342.3c-7.4-7.4-19.4-7.4-26.7 0-7.4 7.4-7.4 19.4 0 26.7l137.5 137.5c3.7 3.7 8.5 5.5 13.4 5.5s9.7-1.8 13.4-5.5c7.2-7.4 7.2-19.4-.1-26.8z"/></svg>