<svg height="512" width="512" xmlns="http://www.w3.org/2000/svg"><path d="M446.423 2.508c-8.023-.342-14.898 5.679-15.598 13.678-1.885 21.535-11.129 41.431-26.029 56.023-14.747 14.442-33.822 22.396-53.713 22.396-41.892 0-76.991-35.391-79.907-80.57C270.667 6.141 264.116 0 256.207 0s-14.459 6.141-14.969 14.034c-2.916 45.18-38.015 80.57-79.906 80.57-40.676 0-74.881-32.927-79.564-76.592-.85-7.924-7.773-13.861-15.717-13.427-6.853.363-13.942 5.658-14.235 15.076-.013.423-.583 195.637-.583 195.654 0 36.849 4.533 69.286 13.859 99.165 8.917 28.57 22.031 54.175 40.091 78.28 30.227 40.343 73.036 75.372 143.143 117.127 2.365 1.409 5.021 2.113 7.676 2.113s5.311-.704 7.676-2.113c70.106-41.755 112.915-76.784 143.142-117.127 18.06-24.104 31.174-49.71 40.091-78.28 9.326-29.879 13.859-62.316 13.859-99.165V17.494c-.002-8.03-6.325-14.636-14.347-14.986zm-15.655 212.808c0 65.118-15.239 115.787-47.958 159.456-26.65 35.568-64.832 67.153-126.81 104.729-61.979-37.576-100.16-69.161-126.809-104.729-32.719-43.669-47.958-94.337-47.958-159.438.046-38.717.129-87.78.233-127.02 20.151 22.461 48.606 36.291 79.867 36.291 28.259 0 55.121-11.324 75.637-31.886a116.158 116.158 0 0019.238-25.537 116.135 116.135 0 0019.238 25.537c20.516 20.562 47.378 31.886 75.637 31.886 27.786 0 54.316-10.996 74.704-30.962a115.073 115.073 0 004.981-5.195z"/><path d="M356.83 214.172a1070.662 1070.662 0 01-63.146 4.087c.743-21.214 2.11-42.457 4.08-63.344a15 15 0 00-14.933-16.408H229.17a15 15 0 00-14.933 16.408 1080.17 1080.17 0 014.08 63.344 1071.541 1071.541 0 01-63.145-4.087 14.999 14.999 0 00-16.415 14.932v53.791a15 15 0 0016.415 14.933 1070.718 1070.718 0 0163.146-4.087 1078.44 1078.44 0 01-4.08 63.344 15 15 0 0014.933 16.408h53.661a15 15 0 0014.933-16.408 1080.338 1080.338 0 01-4.08-63.344c21.152.745 42.327 2.115 63.146 4.088a15 15 0 0016.415-14.933v-53.791a15.001 15.001 0 00-16.416-14.933zm-13.585 52.362a1107.82 1107.82 0 00-64.686-3.226 15.07 15.07 0 00-10.914 4.39 15 15 0 00-4.391 10.914 1114.795 1114.795 0 003.221 64.882h-20.951a1116.474 1116.474 0 003.222-64.882c.083-4.084-1.502-8.025-4.391-10.914s-6.811-4.464-10.914-4.39a1107.951 1107.951 0 00-64.686 3.226v-21.068c21.429 1.7 43.119 2.783 64.686 3.226a14.973 14.973 0 0010.914-4.39 15 15 0 004.391-10.914 1114.752 1114.752 0 00-3.222-64.882h20.951a1115.721 1115.721 0 00-3.221 64.882 15.002 15.002 0 004.391 10.914c2.889 2.888 6.837 4.49 10.914 4.389a1107.12 1107.12 0 0064.686-3.226z"/></svg>