<svg height="512" width="512" xmlns="http://www.w3.org/2000/svg"><path d="M206.607 254.394c-5.857-5.857-15.355-5.857-21.213 0s-5.858 15.355 0 21.213l40 40C228.322 318.535 232.161 320 236 320s7.678-1.465 10.606-4.394l80-80c5.858-5.857 5.858-15.355 0-21.213-5.857-5.857-15.355-5.857-21.213 0L236 283.787z"/><path d="M436 80c-60.479 0-117.339-23.552-160.104-66.317l-9.289-9.289c-5.856-5.859-15.355-5.857-21.213 0l-9.29 9.289C193.339 56.448 136.48 80 76 80c-8.284 0-15 6.716-15 15v149.622c0 120.271 76.401 227.393 190.115 266.561a15 15 0 009.77 0C374.599 472.015 451 364.892 451 244.622V95c0-8.284-6.716-15-15-15zm-15 164.622c0 105.74-66.09 200.108-165 236.457-98.91-36.348-165-130.716-165-236.457V109.568c28.598-1.655 56.498-8.056 83.128-19.086C204.824 77.767 232.361 59.509 256 36.204c23.639 23.305 51.176 41.562 81.871 54.277 26.631 11.03 54.53 17.431 83.129 19.086z"/><path d="M121 255c0 74.439 60.561 135 135 135s135-60.561 135-135-60.56-135-135-135-135 60.561-135 135zm240 0c0 57.897-47.103 105-105 105s-105-47.103-105-105 47.103-105 105-105c57.898 0 105 47.103 105 105z"/></svg>