<svg xmlns="http://www.w3.org/2000/svg" viewBox="0 0 512 512"><path d="M491.532 305.92c7.874-37.339 6.789-76.306-3.2-113.149-10.93-40.311-32.404-77.314-62.1-107.01-29.696-29.695-66.699-51.17-107.01-62.099-36.843-9.99-75.81-11.073-113.151-3.2C181.626 5.167 152.633-1.916 123.652.446 91.901 3.035 61.994 16.883 39.438 39.439S3.035 91.901.446 123.652c-2.364 28.982 4.719 57.972 20.016 82.419-7.874 37.339-6.789 76.309 3.2 113.151 10.929 40.311 32.403 77.315 62.099 107.01 29.696 29.695 66.699 51.169 107.009 62.099 36.843 9.991 75.811 11.074 113.15 3.201 21.366 13.37 46.201 20.469 71.469 20.468 3.643 0 7.3-.148 10.953-.445 31.753-2.589 61.663-16.437 84.219-38.994s36.404-52.467 38.993-84.219c2.363-28.982-4.724-57.976-20.022-82.422zm-41.227 144.385c-35.563 35.562-91.179 40.41-132.239 11.523a15.742 15.742 0 00-12.748-2.426c-71.562 17.274-145.319-3.447-197.3-55.427-51.981-51.981-72.7-125.738-55.425-197.301 1.062-4.4.177-9.045-2.426-12.748-28.881-41.059-24.033-96.671 11.528-132.231 35.56-35.56 91.171-40.411 132.231-11.528a15.739 15.739 0 0012.747 2.426c71.564-17.274 145.319 3.445 197.301 55.427C455.955 160 476.675 233.757 459.4 305.318a15.745 15.745 0 002.427 12.749c28.887 41.06 24.041 96.675-11.522 132.238z"/><path d="M258.946 238.782c-32.503-10.994-69.341-23.457-69.341-41.884 0-23.506 30.405-43.364 66.397-43.364 35.991 0 66.397 19.859 66.397 43.364 0 8.691 7.046 15.738 15.738 15.738s15.738-7.046 15.738-15.738c0-20.987-10.868-40.364-30.603-54.565-18.169-13.074-42.059-20.273-67.27-20.273s-49.101 7.2-67.27 20.273c-19.735 14.2-30.603 33.578-30.603 54.565 0 19.137 10.989 35.285 32.66 47.996 16.356 9.593 37.562 16.766 58.07 23.703 36.154 12.23 73.54 24.877 73.54 46.503 0 23.506-30.406 43.364-66.397 43.364s-66.397-19.859-66.397-43.364c0-8.691-7.046-15.738-15.738-15.738s-15.738 7.046-15.738 15.738c0 20.987 10.867 40.364 30.603 54.565 18.169 13.074 42.059 20.273 67.27 20.273 25.212 0 49.101-7.2 67.27-20.273 19.735-14.2 30.603-33.578 30.603-54.565.001-44.205-50.433-61.265-94.929-76.318z"/></svg>