<svg height="512" width="512" xmlns="http://www.w3.org/2000/svg"><path d="M331 481.999v-30h120V182.252l36.055 26.787 17.891-24.081L256 .001 7.055 184.958l17.891 24.081L61 182.252v269.747h120v30H0v30h211v-60h30v60h30v-60h30v60h211v-30zm-240-60V159.963L256 37.375l165 122.588v262.036h-90v-30h30v-30h30v-30h-30v-30h30v-30h-30v-30h30v-30h-30v-30h-30v-30h-30v30h-30v-30h-30v30h-30v-30h-30v30h-30v30h-30v30h30v30h-30v30h30v30h-30v30h30v30h30v30zm90-60v-150h150v150zm29.999 60v-30H241v30zm60.001 0v-30h30v30z"/><path d="M241 271.999h30v30h-30z"/></svg>