<svg height="512" width="512" xmlns="http://www.w3.org/2000/svg"><path d="M445.261 392.632C458.638 379.875 467 361.901 467 342c0-38.598-31.401-70-70-70s-70 31.402-70 70c0 19.901 8.362 37.875 21.739 50.632C309.37 410.909 282 450.815 282 497c0 8.284 6.716 15 15 15h200c8.284 0 15-6.716 15-15 0-46.185-27.37-86.091-66.739-104.368zM357 342c0-22.056 17.944-40 40-40s40 17.944 40 40-17.944 40-40 40-40-17.944-40-40zm-43.675 140c7.105-39.739 41.924-70 83.675-70s76.569 30.261 83.675 70zm-150.064-89.368C176.638 379.875 185 361.901 185 342c0-38.598-31.401-70-70-70s-70 31.402-70 70c0 19.901 8.362 37.875 21.739 50.632C27.37 410.909 0 450.815 0 497c0 8.284 6.716 15 15 15h200c8.284 0 15-6.716 15-15 0-46.185-27.37-86.091-66.739-104.368zM75 342c0-22.056 17.944-40 40-40s40 17.944 40 40-17.944 40-40 40-40-17.944-40-40zM31.325 482c7.105-39.739 41.924-70 83.675-70s76.569 30.261 83.675 70z"/><path d="M466 250c24.813 0 45-20.187 45-45V45c0-24.813-20.187-45-45-45H46C21.187 0 1 20.187 1 45v160c0 24.813 20.187 45 45 45h165v65a14.998 14.998 0 0014.997 15c3.903 0 7.74-1.524 10.609-4.394L312.213 250zm-170.606-25.606L241 278.787V235c0-8.284-6.716-15-15-15H46c-8.271 0-15-6.729-15-15V45c0-8.271 6.729-15 15-15h420c8.271 0 15 6.729 15 15v160c0 8.271-6.729 15-15 15H306a14.996 14.996 0 00-10.606 4.394z"/><path d="M421 75H91c-8.284 0-15 6.716-15 15s6.716 15 15 15h330c8.284 0 15-6.716 15-15s-6.716-15-15-15zm0 70H91c-8.284 0-15 6.716-15 15s6.716 15 15 15h330c8.284 0 15-6.716 15-15s-6.716-15-15-15z"/></svg>