<svg xmlns="http://www.w3.org/2000/svg" viewBox="0 0 511.999 511.999"><path d="M461.032 258.398l-30.607-162.55c-4.178-22.19-23.6-38.296-46.18-38.296h-49.928V15c0-8.284-6.716-15-15-15H192.683c-8.284 0-15 6.716-15 15v42.552h-49.928c-22.58 0-42.002 16.105-46.18 38.296l-30.607 162.55c-24.628.217-44.599 20.311-44.599 44.99v83.158c0 23.896 18.724 43.493 42.271 44.909v39.931c0 22.395 18.22 40.613 40.614 40.613h7.654c22.395 0 40.614-18.219 40.614-40.613v-39.841h236.955v39.841c0 22.395 18.22 40.613 40.614 40.613h7.654c22.395 0 40.614-18.219 40.614-40.613v-39.931c23.546-1.417 42.271-21.013 42.271-44.909v-83.158c.001-24.679-19.969-44.773-44.598-44.99zM207.682 30h96.635v27.552h-96.635V30zm-96.624 71.399c1.51-8.024 8.533-13.847 16.697-13.847h256.49c8.164 0 15.187 5.823 16.697 13.847l6.935 36.831H104.123l6.935-36.831zm-12.584 66.83h315.053l16.976 90.158H81.497l16.977-90.158zm9.049 303.158C107.522 477.24 102.76 482 96.908 482h-7.654c-5.853 0-10.614-4.761-10.614-10.613v-39.841h28.883v39.841zm325.838 0c-.001 5.852-4.762 10.613-10.615 10.613h-7.654c-5.853 0-10.614-4.761-10.614-10.613v-39.841h28.883v39.841zm27.27-69.841H51.369c-8.271 0-15-6.729-15-15v-83.158c0-8.271 6.729-15 15-15h409.262c8.271 0 15 6.729 15 15v83.158c0 8.271-6.729 15-15 15z"/><path d="M113.832 325.536H77.521c-8.284 0-15 6.716-15 15s6.716 15 15 15h36.311c8.284 0 15-6.716 15-15s-6.716-15-15-15zm320.647 0h-36.311c-8.284 0-15 6.716-15 15s6.716 15 15 15h36.311c8.284 0 15-6.716 15-15s-6.716-15-15-15z"/></svg>