<svg height="512pt" viewBox="-31 0 512 512" width="512pt" xmlns="http://www.w3.org/2000/svg"><path d="M446.309 363.98c-22.11-38.203-53.903-70.25-91.942-92.664a254.231 254.231 0 00-48.36-22.03C340.239 224.147 362.5 183.628 362.5 138c0-76.094-61.906-138-138-138s-138 61.906-138 138c0 45.629 22.266 86.148 56.492 111.285a254.474 254.474 0 00-48.36 22.031c-38.038 22.418-69.831 54.461-91.94 92.668a19.982 19.982 0 000 20.036C47.198 460.926 130.226 512 224.5 512c94.258 0 177.293-51.059 221.813-127.98a20 20 0 00-.004-20.04zM126.5 138c0-54.04 43.96-98 98-98s98 43.96 98 98-43.96 98-98 98-98-43.96-98-98zm98 334c-73.125 0-140.957-36.742-181.02-98 18.215-27.852 42.727-51.29 71.461-68.223C148.004 286.297 185.887 276 224.5 276s76.496 10.297 109.559 29.777c28.734 16.934 53.25 40.375 71.464 68.223-40.011 61.18-107.812 98-181.023 98zm0 0"/></svg>