<svg height="512" viewBox="0 0 512.005 512.005" width="512" xmlns="http://www.w3.org/2000/svg"><path d="M309.297 122.586l-53.292 26.646-53.292-26.646c-7.409-3.705-16.42-.701-20.125 6.708-3.705 7.41-.701 16.419 6.708 20.125l51.708 25.854v80.729c0 8.284 6.716 15 15 15s15-6.716 15-15v-80.729l51.708-25.854c7.41-3.705 10.413-12.715 6.708-20.125-3.704-7.41-12.714-10.413-20.123-6.708z"/><path d="M512.005 129.007c.012-35.86-16.974-65.761-45.436-79.986-29.898-14.941-63.515-8.295-91.13 9.775-19.228-8.387-69.156-27.794-119.433-27.794-50.309 0-100.268 19.432-119.47 27.81-27.898-18.102-61.728-24.511-91.596-9.327C16.446 63.97-.351 94.126.006 130.151c.099 9.954.522 21.349 3.739 33.547-8.646 18.421-2.113 44.325 17.687 64.125 21.734 21.735 55.004 29.849 74.246 10.606 17.843-17.843 13.184-50.456-10.606-74.247-16.541-16.54-37.342-23.821-54.482-20.733-.433-4.623-.541-9.174-.585-13.595-.242-24.375 10.424-44.421 28.53-53.625 17.597-8.945 39.337-6.319 60.595 7.061-8.274 89.573 30.895 156.153 85.129 228.799-6.581 6.254-12.448 15.503-15.52 29.178-9.677 43.083 14.448 108.132 41.66 135.343a15 15 0 0010.606 4.394h30c3.979 0 7.793-1.581 10.606-4.394 27.211-27.211 51.337-92.259 41.66-135.343-3.072-13.675-8.939-22.924-15.52-29.178 54.282-72.71 93.413-139.284 85.125-228.842 21.108-13.415 42.735-16.156 60.28-7.389 18.071 9.032 28.855 28.897 28.848 53.141-.002 4.683-.079 9.517-.546 14.459-17.148-3.105-37.967 4.174-54.52 20.726-23.791 23.791-28.45 56.403-10.606 74.246 19.812 19.813 53.273 10.367 74.246-10.606 19.799-19.799 26.333-45.7 17.689-64.122 3.218-12.175 3.734-23.811 3.738-34.695zM63.859 185.396c12.949 12.95 14.931 27.496 10.606 31.82-4.325 4.323-18.87 2.343-31.82-10.606-12.949-12.95-14.932-27.496-10.607-31.82 4.573-4.572 19.298-1.916 31.821 10.606zm210.214 121.517a15 15 0 006.881 23.214c2.439.873 9.86 3.527 13.047 17.715 6.718 29.912-10.365 79.845-29.628 103.162h-16.734c-19.264-23.316-36.347-73.25-29.628-103.162 3.187-14.188 10.608-16.842 13.047-17.715a15.002 15.002 0 006.881-23.214c-64.23-84.316-96.152-142.609-88.948-220.773 17.43-7.515 63.002-25.137 107.016-25.137 44.017 0 89.593 17.625 107.016 25.137 7.202 78.163-24.72 136.457-88.95 220.773zm195.292-100.304c-12.95 12.949-27.496 14.931-31.82 10.606-4.325-4.325-2.343-18.871 10.606-31.82 12.229-12.229 27.148-15.28 31.82-10.607 4.326 4.326 2.343 18.872-10.606 31.821z"/></svg>