<svg xmlns="http://www.w3.org/2000/svg" width="512" height="512" viewBox="0 0 32 32"><path d="M16 1a15 15 0 1015 15A15.017 15.017 0 0016 1zm0 28c-2.065 0-4.227-2.662-5.3-7h10.6c-1.073 4.338-3.235 7-5.3 7zm-5.706-9a27.358 27.358 0 010-8h11.412A26.651 26.651 0 0122 16a26.651 26.651 0 01-.294 4zM3 16a12.94 12.94 0 01.636-4h4.65a28.115 28.115 0 000 8h-4.65A12.94 12.94 0 013 16zM16 3c2.065 0 4.227 2.662 5.3 7H10.7c1.073-4.338 3.235-7 5.3-7zm7.714 9h4.65a12.9 12.9 0 010 8h-4.65A28.351 28.351 0 0024 16a28.351 28.351 0 00-.286-4zm3.807-2h-4.167a16.766 16.766 0 00-2.567-6.075A13.063 13.063 0 0127.521 10zM11.213 3.925A16.766 16.766 0 008.646 10H4.479a13.063 13.063 0 016.734-6.075zM4.479 22h4.167a16.766 16.766 0 002.567 6.075A13.063 13.063 0 014.479 22zm16.308 6.075A16.766 16.766 0 0023.354 22h4.167a13.063 13.063 0 01-6.734 6.075z" data-name="Layer 3"/></svg>