<svg height="512pt" viewBox="0 0 512 512" width="512pt" xmlns="http://www.w3.org/2000/svg"><path d="M437.02 74.98C388.668 26.63 324.379 0 256 0S123.332 26.629 74.98 74.98C26.63 123.332 0 187.621 0 256s26.629 132.668 74.98 181.02C123.332 485.37 187.621 512 256 512s132.668-26.629 181.02-74.98C485.37 388.668 512 324.379 512 256s-26.629-132.668-74.98-181.02zm-79.387 114.586c23.312 4.188 44.773 9.84 63.531 16.844C459.258 220.637 482 239.176 482 256s-22.742 35.363-60.836 49.586c-18.758 7.008-40.219 12.66-63.531 16.844C359.852 301.04 361 278.742 361 256s-1.148-45.04-3.367-66.434zm58.172-93.37c29.125 29.12 49.312 64.796 59.207 103.695-11.817-7.965-26.317-15.22-43.352-21.582-22.89-8.547-49.375-15.227-78.125-19.84-4.617-28.754-11.293-55.239-19.844-78.13-6.359-17.034-13.617-31.534-21.582-43.35 38.899 9.894 74.575 30.081 103.696 59.206zM331 256c0 24.477-1.387 48.34-4.043 70.957C304.34 329.613 280.477 331 256 331s-48.34-1.387-70.957-4.043C182.387 304.34 181 280.477 181 256s1.387-48.34 4.043-70.957C207.66 182.387 231.523 181 256 181s48.34 1.387 70.957 4.043C329.613 207.66 331 231.523 331 256zM256 30c16.824 0 35.363 22.742 49.59 60.836 7.004 18.758 12.656 40.219 16.844 63.531C301.043 152.148 278.742 151 256 151s-45.04 1.148-66.43 3.367c4.184-23.312 9.836-44.773 16.844-63.531C220.637 52.742 239.176 30 256 30zM96.195 96.195c29.121-29.125 64.797-49.312 103.696-59.207-7.965 11.817-15.22 26.317-21.582 43.352-8.547 22.89-15.227 49.375-19.84 78.129-28.754 4.613-55.239 11.293-78.13 19.84-17.034 6.363-31.534 13.617-43.35 21.582 9.894-38.899 30.081-74.575 59.206-103.696zm-5.36 110.22c18.759-7.009 40.22-12.661 63.532-16.845C152.148 210.96 151 233.258 151 256s1.148 45.04 3.367 66.43c-23.312-4.184-44.773-9.836-63.531-16.844C52.742 291.363 30 272.824 30 256s22.742-35.363 60.836-49.586zm5.36 209.39c-29.125-29.121-49.312-64.797-59.207-103.696 11.817 7.965 26.317 15.22 43.352 21.582 22.89 8.547 49.375 15.227 78.129 19.84 4.613 28.754 11.293 55.239 19.84 78.13 6.363 17.034 13.617 31.534 21.582 43.35-38.899-9.894-74.575-30.081-103.696-59.206zM256 482c-16.824 0-35.363-22.742-49.586-60.836-7.008-18.758-12.66-40.219-16.844-63.531C210.96 359.852 233.258 361 256 361s45.043-1.148 66.434-3.367c-4.188 23.312-9.84 44.773-16.844 63.531C291.363 459.258 272.824 482 256 482zm159.805-66.195c-29.121 29.125-64.797 49.312-103.696 59.207 7.965-11.817 15.223-26.317 21.582-43.352 8.551-22.89 15.227-49.375 19.844-78.129 28.75-4.613 55.235-11.293 78.125-19.84 17.035-6.363 31.535-13.617 43.352-21.582-9.895 38.899-30.082 74.575-59.207 103.696zm0 0"/></svg>