<svg xmlns="http://www.w3.org/2000/svg" viewBox="0 0 511.999 511.999"><path d="M392.255 162.879a15.079 15.079 0 00-18.323-4.436l-88.296 41.337-49.889-43.376a15.086 15.086 0 00-11.115-3.651 15.08 15.08 0 00-10.378 5.398l-94.177 113.442a15.077 15.077 0 0017.993 23.285l88.296-41.337 49.89 43.377a15.077 15.077 0 0021.493-1.746l94.176-113.443a15.078 15.078 0 00.33-18.85zM284.401 264.042l-45.65-39.693a15.07 15.07 0 00-16.286-2.278l-36.126 16.913 41.265-49.707 45.65 39.692a15.074 15.074 0 0016.285 2.278l36.128-16.914-41.266 49.709z"/><path d="M435.486 85.079C387.372 48.481 323.63 28.326 256 28.326S124.627 48.481 76.513 85.079C27.173 122.608 0 172.891 0 226.66c0 31.849 9.924 63.49 28.699 91.503 16.368 24.421 39.535 46.234 67.339 63.477v86.956a15.077 15.077 0 0025.706 10.693l62.531-62.163c23.221 5.224 47.308 7.869 71.724 7.869 67.63 0 131.372-20.155 179.486-56.752 49.341-37.531 76.513-87.812 76.513-141.583.001-53.769-27.172-104.051-76.512-141.581zM256 394.842c-24.866 0-49.318-3.01-72.679-8.947a15.07 15.07 0 00-14.343 3.92l-42.786 42.534v-59.267a15.08 15.08 0 00-7.577-13.08c-56.219-32.235-88.461-80.838-88.461-133.341 0-92.735 101.314-168.18 225.846-168.18 124.533 0 225.847 75.447 225.847 168.181S380.532 394.842 256 394.842z"/></svg>