<svg xmlns="http://www.w3.org/2000/svg" width="107.233" height="43.909"><defs><clipPath clipPathUnits="userSpaceOnUse" id="a"><path d="M0 0h595.276v841.89H0z"/></clipPath></defs><g clip-path="url(#a)" transform="matrix(1.33333 0 0 -1.33333 -603.317 105.07)"><path d="M486.806 62.337a15.8 15.8 0 01-1.097 5.75c-.186-5.898-6.433-10.466-10.1-13.489h9.181a15.862 15.862 0 012.016 7.739m-6.638 12.988a17.516 17.516 0 01-10.522 3.478c-9.476 0-17.158-7.372-17.158-16.466 0-9.094 7.682-16.466 17.158-16.466 4.341 0 8.293 1.557 11.313 4.107h-12.423l-.037 3.502c7.485 6.244 12.074 10.467 12.074 14.546 0 1.516-.602 3.429-3.309 3.429-2.144 0-4.213-1.192-3.838-6.172h-4.362c-1.092 5.774 2.181 10.36 8.425 10.36.966 0 1.863-.112 2.68-.318" fill="#afca0b"/><path d="M502.722 67.422h4.059c.138 2.963-.902 7.657-7.597 7.657-4.926 0-8.501-2.83-8.501-8.722 0-.799.035-4.927.035-7.491 0-6.391 4.615-7.79 8.5-7.79 2.325 0 5.689.5 7.25 2.131v10.187h-7.631v-3.696h3.4v-4.493c-2.568-.832-7.251-1.166-7.251 4.493v6.659c0 3.961 1.908 5.327 4.023 5.327 2.187 0 3.713-1.066 3.713-4.262m30.189-9.888c.175 9.122-10.718 6.093-10.614 11.187.034 1.797 1.249 2.963 3.226 2.963 2.115 0 3.365-1.199 3.329-4.329h3.99c.105 2.831-.588 7.658-7.18 7.658-4.093 0-7.46-1.932-7.528-6.226-.174-8.755 10.788-5.893 10.614-11.185-.07-2.164-1.7-3.129-3.538-3.129-2.15 0-3.885 1.198-3.538 4.793h-4.025c-.45-4.76 1.736-8.157 7.529-8.157 4.89 0 7.666 2.598 7.735 6.425m-18.325-6.124h-4.094v23.303h4.094zm0 0h-4.094v23.303h4.094z" fill="#3c3c3b"/></g></svg>